<svg width="304" height="24" viewBox="0 0 304 24" fill="none" xmlns="http://www.w3.org/2000/svg">
<path fill-rule="evenodd" clip-rule="evenodd" d="M241.406 1.17188H262.594C263.369 1.17188 264 1.80281 264 2.57812V16.5469C264 17.3222 263.369 17.9531 262.594 17.9531H241.406C240.631 17.9531 240 17.3222 240 16.5469V2.57812C240 1.80281 240.631 1.17188 241.406 1.17188ZM255.703 21.4219H259.5C259.888 21.4219 260.203 21.7369 260.203 22.125C260.203 22.5131 259.888 22.8281 259.5 22.8281H244.5C244.112 22.8281 243.797 22.5131 243.797 22.125C243.797 21.7369 244.112 21.4219 244.5 21.4219H248.297V19.3594H255.703V21.4219ZM248.431 7.50392C248.256 7.50392 248.106 7.5652 247.984 7.68778C247.861 7.81035 247.8 7.95744 247.8 8.12911V10.7649C247.8 10.9409 247.861 11.0899 247.984 11.2125C248.106 11.335 248.256 11.3963 248.431 11.3963C248.607 11.3963 248.755 11.335 248.876 11.2125C248.996 11.0899 249.057 10.9409 249.057 10.7649V8.12911C249.057 7.95742 248.995 7.81035 248.873 7.68778C248.75 7.5652 248.603 7.50392 248.431 7.50392ZM253.942 4.33491L253.507 5.13779C253.944 5.36285 254.293 5.6763 254.555 6.0788C254.817 6.48162 254.947 6.92173 254.947 7.39986H249.277C249.277 6.92162 249.408 6.48153 249.67 6.0788C249.931 5.6763 250.283 5.36285 250.724 5.13779L250.289 4.33491C250.26 4.28176 250.27 4.24113 250.319 4.21234C250.373 4.18774 250.413 4.20015 250.442 4.24902L250.883 5.05832C251.272 4.88665 251.682 4.80063 252.115 4.80063C252.549 4.80063 252.959 4.88663 253.348 5.05832L253.789 4.24902C253.817 4.20015 253.858 4.18763 253.912 4.21234C253.96 4.241 253.971 4.28176 253.942 4.33491ZM250.822 6.37624C250.887 6.37624 250.944 6.35276 250.991 6.30558C251.037 6.25862 251.061 6.20252 251.061 6.13706C251.061 6.07172 251.038 6.01573 250.991 5.96855C250.944 5.92159 250.887 5.89811 250.822 5.89811C250.757 5.89811 250.701 5.92159 250.656 5.96855C250.612 6.01562 250.589 6.07172 250.589 6.13706C250.589 6.20263 250.612 6.25862 250.656 6.30558C250.701 6.35276 250.756 6.37624 250.822 6.37624ZM253.409 6.37624C253.474 6.37624 253.529 6.35276 253.574 6.30558C253.619 6.25862 253.642 6.20252 253.642 6.13706C253.642 6.07172 253.619 6.01573 253.574 5.96855C253.529 5.92159 253.474 5.89811 253.409 5.89811C253.343 5.89811 253.287 5.92159 253.24 5.96855C253.193 6.01562 253.17 6.07172 253.17 6.13706C253.17 6.20263 253.193 6.25862 253.24 6.30558C253.287 6.35276 253.343 6.37624 253.409 6.37624ZM249.302 11.7028C249.302 11.8909 249.367 12.0502 249.498 12.1809C249.629 12.3116 249.788 12.377 249.976 12.377H250.43L250.436 13.7686C250.436 13.9443 250.497 14.0936 250.62 14.2161C250.742 14.3387 250.889 14.4 251.061 14.4C251.237 14.4 251.386 14.3387 251.508 14.2161C251.631 14.0936 251.692 13.9443 251.692 13.7686V12.3771H252.538V13.7686C252.538 13.9443 252.599 14.0936 252.722 14.2161C252.845 14.3387 252.994 14.4 253.169 14.4C253.345 14.4 253.494 14.3387 253.617 14.2161C253.74 14.0936 253.801 13.9443 253.801 13.7686V12.3771H254.261C254.444 12.3771 254.602 12.3117 254.733 12.181C254.863 12.0503 254.929 11.8911 254.929 11.7029V7.62029H249.302V11.7028ZM255.358 7.68473C255.481 7.5643 255.628 7.50392 255.799 7.50392C255.975 7.50392 256.124 7.5643 256.247 7.68473C256.369 7.80539 256.431 7.95358 256.431 8.12911V10.7649C256.431 10.9409 256.369 11.0899 256.247 11.2125C256.124 11.335 255.975 11.3963 255.799 11.3963C255.628 11.3963 255.481 11.335 255.358 11.2125C255.235 11.0899 255.174 10.9409 255.174 10.7649V8.12911C255.174 7.9536 255.236 7.80539 255.358 7.68473Z" fill="#080806"/>
<g clip-path="url(#clip0)">
<path d="M286.075 16.1018C286.014 15.7849 285.892 15.4355 285.889 15.0841C285.877 13.916 286.354 12.897 286.949 11.9263C286.961 11.9063 286.992 11.8994 287.014 11.8849C286.984 12.0361 286.915 12.1569 286.852 12.2763C286.413 13.12 286.019 13.9788 285.999 14.953C285.988 15.4859 286.092 15.9906 286.542 16.4145C286.536 16.3013 286.526 16.224 286.528 16.1432C286.541 15.7655 286.525 15.3838 286.575 15.0116C286.702 14.0734 287.042 13.2104 287.49 12.373C287.78 11.8303 288.137 11.4375 288.733 11.2725C288.822 11.2483 288.9 11.1848 289.022 11.1185C288.851 11.0108 288.724 10.9363 288.602 10.8527C288.318 10.6601 288.243 10.3833 288.395 10.0705C288.47 9.91449 288.535 9.74327 288.648 9.619C289.065 9.15782 289.28 8.63313 289.232 8.00763C289.23 7.99176 289.234 7.97657 289.237 7.96069C289.268 7.79776 289.228 7.66934 289.11 7.53472C288.65 7.00864 288.688 6.45702 289.212 6.00551C289.342 5.89504 289.337 5.81565 289.279 5.6686C289.056 5.11007 289.005 4.53291 289.212 3.95988C289.386 3.48282 289.885 3.33577 290.256 3.65266C290.503 3.86668 290.685 4.13662 290.73 4.47491C290.752 4.63646 290.76 4.80009 290.773 4.96164C291.087 4.96164 291.39 4.96164 291.711 4.96164C291.711 4.88086 291.719 4.80285 291.709 4.72552C291.666 4.38309 291.793 4.09037 291.971 3.81421C292.332 3.24947 293.168 3.13072 293.583 3.60778C293.973 4.05654 294.193 4.58399 294.084 5.19637C294.045 5.41729 293.966 5.63062 293.902 5.85707C294.145 6.00689 294.32 6.22505 294.29 6.52744C294.264 6.79048 294.173 7.04523 294.119 7.30551C294.098 7.41183 294.061 7.53748 294.097 7.63275C294.202 7.92686 294.34 8.2113 294.468 8.4985C294.612 8.82091 294.769 9.13918 294.907 9.46297C295.264 10.3018 295.614 11.1441 295.965 11.9857C296.101 12.3191 296.256 12.6519 296.353 12.9985C296.649 14.0651 296.712 15.1559 296.617 16.2564C296.606 16.3862 296.628 16.4476 296.76 16.5008C297.025 16.6064 297.161 16.8205 297.16 17.1125C297.16 17.2312 297.132 17.3527 297.152 17.466C297.169 17.5778 297.206 17.7131 297.282 17.7842C297.581 18.0535 298.056 18.0583 298.402 17.8484C298.816 17.5965 299.067 17.2098 299.343 16.7701C298.602 16.1784 297.818 16.0852 296.954 16.4967C297.048 16.3979 297.146 16.2702 297.257 16.2536C297.591 16.2115 297.677 15.9789 297.755 15.7165C297.8 15.5584 297.854 15.401 297.896 15.2415C298.208 14.052 297.996 12.9722 297.185 12.0374C296.975 11.7937 296.707 11.6011 296.466 11.3857C297.031 11.6701 297.491 12.0802 297.813 12.6222C298.502 13.7834 298.245 14.9647 297.85 16.1432C298.778 16.2081 299.097 16.3199 299.462 16.7107C299.592 16.6962 299.718 16.6907 299.839 16.6637C299.895 16.6513 299.97 16.6057 299.987 16.5588C300.062 16.3434 300.138 16.1259 300.178 15.9036C300.303 15.2402 300.148 14.5995 299.962 13.9712C299.57 12.6443 298.916 11.443 298.115 10.3184C297.612 9.61279 297.094 8.91204 296.669 8.15814C296.063 7.07975 295.746 5.90747 295.77 4.65234C295.779 4.20152 295.753 3.73896 295.669 3.29435C295.522 2.51144 295.259 1.75547 294.681 1.18314C293.589 0.104057 292.274 -0.236995 290.788 0.157908C290.05 0.352598 289.385 0.690198 288.966 1.37575C288.627 1.93083 288.494 2.55287 288.5 3.18665C288.51 4.35202 288.51 5.52568 288.631 6.68209C288.739 7.70455 288.561 8.58066 287.863 9.35044C287.584 9.65697 287.341 10.0022 287.096 10.3418C286.072 11.7523 285.41 13.345 284.806 14.9647C284.654 15.3755 284.592 15.7938 284.732 16.2385C285.192 15.9278 285.657 15.8291 286.075 16.1018ZM294.965 7.12186C295.192 7.23647 295.411 7.3711 295.615 7.52229C295.692 7.58028 295.719 7.70593 295.745 7.7515C295.745 8.04561 295.545 8.17885 295.344 8.06701C295.037 7.89579 294.875 7.61411 294.809 7.27651C294.786 7.15707 294.856 7.06801 294.965 7.12186ZM293.263 3.07618C293.627 3.02924 294.012 3.34474 294.122 3.78936C293.904 3.4704 293.669 3.17215 293.263 3.07618ZM293.414 1.16726C293.658 1.1714 293.742 1.35711 293.814 1.54214C293.886 1.72923 293.711 1.75754 293.614 1.83486C293.589 1.85212 293.558 1.86317 293.529 1.8756C293.203 2.01436 293.119 1.95913 293.121 1.60427C293.124 1.27012 293.192 1.16519 293.414 1.16726ZM290.793 3.77762C290.552 3.58224 290.311 3.38686 290.089 3.20736C290.348 3.18319 290.678 3.43381 290.793 3.77762ZM289.718 22.4085C289.796 22.7889 289.608 23.0802 289.271 23.3067C289.161 23.3805 289.059 23.4724 288.967 23.5697C288.565 23.9901 288.073 24.0751 287.533 23.9432C287.251 23.8742 286.971 23.7879 286.701 23.6788C285.68 23.2687 284.623 23.0029 283.548 22.7847C283.179 22.7122 282.812 22.6108 282.457 22.4851C281.953 22.3063 281.792 22.0136 281.897 21.4944C282.048 20.7446 282.055 19.9949 281.935 19.2389C281.84 18.6479 281.987 18.4373 282.567 18.2855C282.788 18.2275 283.008 18.1605 283.232 18.1218C283.645 18.048 283.953 17.8298 284.196 17.4963C284.409 17.2036 284.614 16.8998 284.865 16.6423C285.31 16.1853 285.706 16.1667 286.123 16.6361C286.585 17.1601 287.007 17.7242 287.397 18.3041C288.052 19.2762 288.608 20.3159 289.365 21.2231C289.636 21.5476 289.762 21.9369 289.718 22.4085ZM301.847 20.9027C301.629 21.0795 301.383 21.2279 301.138 21.368C300.089 21.968 299.07 22.6087 298.193 23.4503C297.766 23.8617 297.25 23.9964 296.678 23.9895C296.515 23.9784 296.347 23.9798 296.182 23.9584C295.579 23.8804 295.225 23.5338 295.094 22.9414C294.988 22.452 295.023 21.9652 295.127 21.4882C295.414 20.184 295.428 18.8599 295.442 17.5371C295.451 16.9371 295.594 16.7562 296.263 16.7797C296.729 16.7949 296.789 16.8605 296.738 17.3106C296.679 17.8705 297.093 18.2896 297.727 18.3504C298.43 18.4194 298.877 18.0197 299.29 17.5426C299.376 17.4418 299.437 17.3203 299.514 17.2098C299.698 16.9427 300.062 16.9578 300.19 17.2582C300.265 17.439 300.305 17.6586 300.283 17.8526C300.227 18.2993 300.409 18.6438 300.711 18.9261C301.048 19.2416 301.405 19.5447 301.781 19.8133C302.212 20.1219 302.266 20.5637 301.847 20.9027ZM290.782 8.53647C291.385 8.64279 291.934 8.50679 292.441 8.15745C292.712 7.97035 292.994 7.78257 293.298 7.6652C293.759 7.48708 293.997 7.18676 294.031 6.69866C294.062 6.29685 293.987 6.14704 293.603 5.99377C293.413 5.91714 293.217 5.85224 292.985 5.7687C293.303 5.65962 293.489 5.48564 293.518 5.18118C293.543 4.89122 293.456 4.63232 293.264 4.41899C293.086 4.22499 292.845 4.23673 292.624 4.31267C292.375 4.39759 292.305 4.63094 292.286 4.86429C292.269 5.06934 292.282 5.27645 292.282 5.48288C291.661 5.09074 291.011 5.12802 290.349 5.38208C290.323 5.14597 290.322 4.9071 290.262 4.68341C290.192 4.41347 289.937 4.2533 289.716 4.28989C289.504 4.32441 289.364 4.53636 289.353 4.83253C289.339 5.23296 289.524 5.54156 289.81 5.81565C289.662 5.94199 289.523 6.05659 289.388 6.17534C288.942 6.56541 288.907 6.98448 289.325 7.41597C289.659 7.75978 290.025 8.07529 290.392 8.38528C290.495 8.47089 290.648 8.51438 290.782 8.53647ZM292.994 4.45834C293.068 4.50943 293.159 4.54878 293.212 4.61713C293.247 4.66132 293.227 4.74762 293.235 4.81666C293.21 4.82149 293.185 4.82701 293.16 4.83253C293.087 4.73174 293.012 4.63025 292.938 4.52945C292.957 4.5046 292.976 4.48044 292.994 4.45834ZM291.431 5.46562C291.551 5.48288 291.676 5.48564 291.789 5.52637C291.832 5.54225 291.845 5.64236 291.872 5.70588C291.85 5.72314 291.827 5.74178 291.803 5.75973C291.67 5.69345 291.537 5.62993 291.404 5.56366C291.413 5.52914 291.422 5.49738 291.431 5.46562ZM290.51 5.54156C290.571 5.50912 290.655 5.5174 290.727 5.50635C290.737 5.52914 290.744 5.55054 290.753 5.57263C290.697 5.6182 290.646 5.68033 290.581 5.70449C290.524 5.7259 290.451 5.70588 290.385 5.70311C290.425 5.64788 290.456 5.57263 290.51 5.54156ZM289.801 4.54464C289.814 4.52807 289.825 4.51081 289.838 4.49493C289.899 4.5191 289.996 4.52945 290.015 4.57019C290.059 4.67098 290.065 4.78835 290.087 4.8995C290.059 4.8995 290.032 4.8995 290.004 4.89812C289.937 4.78006 289.87 4.66132 289.801 4.54464ZM289.136 6.96929C289.159 6.94789 289.183 6.92579 289.206 6.90439C289.279 6.95479 289.359 7.00036 289.424 7.06111C290.153 7.72457 290.968 7.7446 291.815 7.35522C292.328 7.11772 292.812 6.81878 293.314 6.55575C293.418 6.50051 293.542 6.48394 293.657 6.44804C293.669 6.47359 293.677 6.49775 293.688 6.5233C293.649 6.56748 293.619 6.62547 293.571 6.65516C292.869 7.08804 292.189 7.57338 291.366 7.75978C290.606 7.931 289.91 7.8019 289.335 7.23647C289.254 7.16191 289.201 7.05835 289.136 6.96929ZM294.916 20.0819C294.795 21.0367 294.681 21.9397 294.563 22.8759C293.125 22.5148 291.632 22.8365 290.162 22.8331C290.129 22.4243 290.096 22.0087 290.063 21.5897C291.864 21.8106 293.512 21.4046 294.916 20.0819ZM288.651 18.3435C288.887 18.5381 289.121 18.739 289.343 18.9503C289.551 19.1498 289.608 19.4101 289.574 19.6883C289.546 19.9251 289.326 20.1357 289.092 20.126C289.022 20.1233 288.94 20.0335 288.895 19.9645C288.376 19.1567 287.864 18.3435 287.346 17.5357C287.227 17.35 287.091 17.176 286.962 16.9979C286.968 16.9882 286.973 16.9792 286.979 16.9696C287.537 17.4273 288.097 17.8823 288.651 18.3435Z" fill="#080806"/>
</g>
<g clip-path="url(#clip1)">
<path d="M16.9996 9.00098H7.00023C6.72425 9.00098 6.50024 9.22498 6.50024 9.50096V17.5004C6.50024 18.7084 7.3602 19.7173 8.50013 19.9503V22.5001C8.50013 23.3271 9.17307 24 10 24C10.827 24 11.4999 23.3271 11.4999 22.5001V20.0003H12.4998V22.5001C12.4998 23.3271 13.1728 24 13.9997 24C14.8267 24 15.4996 23.3271 15.4996 22.5001V19.9503C16.6396 19.7183 17.4995 18.7084 17.4995 17.5004V9.50096C17.4995 9.22399 17.2756 9.00098 16.9996 9.00098Z" fill="#080806"/>
<path d="M14.6167 2.66434L15.4596 0.697451C15.5686 0.443452 15.4506 0.150503 15.1966 0.0414792C14.9456 -0.0685291 14.6486 0.0494943 14.5406 0.304477L13.6977 2.27235C13.1628 2.09836 12.5928 2.00138 12.0008 2.00138C11.4089 2.00138 10.8389 2.09836 10.3039 2.27235L9.45903 0.304477C9.35104 0.0494943 9.05406 -0.0695135 8.80306 0.0414792C8.54906 0.150456 8.43207 0.444437 8.54109 0.697451L9.38404 2.66434C7.66717 3.59629 6.50024 5.41515 6.50024 7.501C6.50024 7.77698 6.72424 8.00098 7.00023 8.00098H16.9995C17.2755 8.00098 17.4995 7.77698 17.4995 7.501C17.4995 5.41515 16.3326 3.59629 14.6167 2.66434ZM9.99998 6.0011C9.724 6.0011 9.5 5.7771 9.5 5.50112C9.5 5.22513 9.724 5.00113 9.99998 5.00113C10.276 5.00113 10.5 5.22513 10.5 5.50112C10.5 5.7771 10.276 6.0011 9.99998 6.0011ZM13.9997 6.0011C13.7238 6.0011 13.4998 5.7771 13.4998 5.50112C13.4998 5.22513 13.7238 5.00113 13.9997 5.00113C14.2757 5.00113 14.4997 5.22513 14.4997 5.50112C14.4997 5.7771 14.2757 6.0011 13.9997 6.0011Z" fill="#080806"/>
<path d="M19.9994 9.00098C19.1725 9.00098 18.4995 9.67392 18.4995 10.5009V15.5006C18.4995 16.3275 19.1725 17.0005 19.9994 17.0005C20.8264 17.0005 21.4993 16.3275 21.4993 15.5006V10.5009C21.4993 9.67396 20.8264 9.00098 19.9994 9.00098Z" fill="#080806"/>
<path d="M4.00039 9.00098C3.17343 9.00098 2.50049 9.67392 2.50049 10.5009V15.5006C2.50049 16.3275 3.17343 17.0005 4.00039 17.0005C4.82735 17.0005 5.50029 16.3275 5.50029 15.5006V10.5009C5.50029 9.67396 4.82735 9.00098 4.00039 9.00098Z" fill="#080806"/>
</g>
<g clip-path="url(#clip2)">
<path d="M40 20.6973L49.8366 22.053V12.6636H40V20.6973Z" fill="#080806"/>
<path d="M40 11.4519H49.8366V1.94714L40 3.30283V11.4519Z" fill="#080806"/>
<path d="M50.9182 22.1973L63.9999 24V12.6636V12.6635H50.9182V22.1973Z" fill="#080806"/>
<path d="M50.9185 1.80287V11.4519H64V0L50.9185 1.80287Z" fill="#080806"/>
</g>
<path d="M176.696 0.521973C179.014 2.09697 180.349 6.25047 180.349 9.39147C180.349 10.194 180.244 10.977 180.056 11.7075C179.889 9.88197 178.95 8.27547 177.552 7.23147C178.324 8.27397 178.783 9.55797 178.783 10.956C178.783 14.4105 175.976 17.217 172.522 17.217C171.124 17.217 170.436 16.9455 169.392 16.173C171.51 16.173 172.813 14.0865 174.609 14.0865C174.609 14.0865 174.349 13.0425 173.044 13.0425C171.739 13.0425 172.356 14.0865 169.913 14.0865C167.472 14.0865 166.261 12.615 166.261 11.478C166.261 10.341 167.951 9.51597 168.347 9.91347C168.703 9.55797 168.347 8.86947 168.347 8.86947L171.479 6.78297C171.479 6.78297 170.957 6.78297 170.435 6.78297C165.802 6.78297 168.463 3.53697 169.392 2.60847C167.733 2.60847 166.688 4.14297 166.259 4.69497C165.998 4.57047 164.173 4.57047 163.651 4.69497C163.421 4.74747 163.099 4.34097 162.796 3.77697C162.421 3.06747 162.087 2.11797 162.087 1.56447C160.762 2.89047 160.991 4.87347 161.513 5.65497C161.492 5.67597 161.471 5.70747 161.461 5.73897C160.532 7.43997 160 9.40197 160 11.478C160 18.1035 165.375 23.478 172 23.478C178.625 23.478 184 18.6255 184 12C184 11.8845 184 11.0715 184 10.956C184 4.76097 180.035 1.52247 176.696 0.521973Z" fill="#080806"/>
<path d="M88.6838 24C85.1119 23.9794 82.1572 16.6879 82.1572 12.9745C82.1572 6.90873 86.7076 5.58077 88.4613 5.58077C89.2516 5.58077 90.0955 5.89112 90.8398 6.16577C91.3603 6.35734 91.8986 6.55511 92.198 6.55511C92.3772 6.55511 92.7995 6.38687 93.1724 6.23927C93.9675 5.92272 94.957 5.5293 96.1091 5.5293C96.1112 5.5293 96.114 5.5293 96.116 5.5293C96.9763 5.5293 99.5849 5.71811 101.153 8.0733L101.521 8.62534L100.992 9.0243C100.237 9.5942 98.8585 10.6338 98.8585 12.6931C98.8585 15.132 100.419 16.07 101.169 16.5211C101.5 16.7202 101.843 16.9255 101.843 17.3746C101.843 17.6678 99.5025 23.9636 96.1043 23.9636C95.2728 23.9636 94.685 23.7137 94.1666 23.4933C93.642 23.2701 93.1895 23.0779 92.4417 23.0779C92.0627 23.0779 91.5834 23.2571 91.076 23.4473C90.3826 23.7061 89.5977 24 88.7071 24H88.6838Z" fill="#080806"/>
<path d="M96.469 0C96.5575 3.19106 94.2754 5.40488 91.996 5.26603C91.6204 2.71945 94.2752 0 96.469 0Z" fill="#080806"/>
<path d="M212 15.9844C214.201 15.9844 215.984 14.2005 215.984 12C215.984 9.79949 214.201 8.01562 212 8.01562C209.799 8.01562 208.016 9.79949 208.016 12C208.016 14.2005 209.799 15.9844 212 15.9844Z" fill="#080806"/>
<path d="M206.734 10.8474C207.263 8.42705 209.423 6.60937 212 6.60937H222.728C222.159 5.47936 221.406 4.43541 220.485 3.51469C218.219 1.24823 215.205 0 212 0C208.795 0 205.781 1.24823 203.515 3.51469C203.297 3.73266 203.089 3.95766 202.89 4.18894L206.734 10.8474Z" fill="#080806"/>
<path d="M213.635 17.1369C213.119 17.3014 212.57 17.3906 212 17.3906C209.998 17.3906 208.247 16.2931 207.317 14.668C207.311 14.6577 207.304 14.6475 207.298 14.6368L201.969 5.40747C200.688 7.3481 200 9.62106 200 12C200 15.2053 201.248 18.2187 203.515 20.4853C205.251 22.2216 207.426 23.3595 209.79 23.7972L213.635 17.1369Z" fill="#080806"/>
<path d="M215.627 8.01562C216.71 9.00225 217.391 10.4231 217.391 12C217.391 12.9918 217.121 13.9216 216.652 14.7208C216.647 14.73 216.643 14.7393 216.638 14.7484L211.308 23.9797C211.538 23.9927 211.768 24 212 24C215.205 24 218.219 22.7518 220.485 20.4853C222.752 18.2188 224 15.2053 224 12C224 10.6216 223.769 9.27891 223.325 8.01562H215.627Z" fill="#080806"/>
<path fill-rule="evenodd" clip-rule="evenodd" d="M144 12C144 18.6274 138.627 24 132 24C125.373 24 120 18.6274 120 12C120 5.37258 125.373 0 132 0C138.627 0 144 5.37258 144 12ZM133.015 8.30289H133.362V8.57718C133.362 8.72194 133.319 8.84004 133.233 8.93147C133.151 9.01908 133.035 9.06289 132.886 9.06289C132.61 9.06289 132.472 8.94099 132.472 8.69718C132.472 8.58289 132.519 8.48956 132.612 8.41718C132.705 8.34099 132.84 8.30289 133.015 8.30289ZM131.986 6.80004V7.43432C132.239 7.26289 132.517 7.17718 132.819 7.17718C133.017 7.17718 133.157 7.21908 133.239 7.30289C133.321 7.3867 133.362 7.50861 133.362 7.66861V7.84575H132.948C132.568 7.84575 132.277 7.92385 132.075 8.08004C131.874 8.23623 131.773 8.45147 131.773 8.72575C131.773 8.96956 131.852 9.17146 132.008 9.33146C132.169 9.49146 132.383 9.57147 132.651 9.57147C133.013 9.57147 133.259 9.44766 133.39 9.20004V9.54861H134.055V7.69718C134.055 6.96575 133.671 6.60004 132.903 6.60004C132.504 6.60004 132.198 6.6667 131.986 6.80004ZM127.871 7.10861V6.65146H127.2V9.54861H127.871V7.99432C127.871 7.71623 127.929 7.51242 128.045 7.38289C128.16 7.25337 128.291 7.18861 128.436 7.18861C128.727 7.18861 128.872 7.38289 128.872 7.77146V9.54861H129.549V7.99432C129.549 7.71623 129.605 7.51242 129.717 7.38289C129.832 7.25337 129.963 7.18861 130.108 7.18861C130.399 7.18861 130.544 7.38289 130.544 7.77146V9.54861H131.221V7.64004C131.221 7.31242 131.143 7.06099 130.986 6.88575C130.83 6.7067 130.608 6.61718 130.321 6.61718C130.131 6.61718 129.961 6.6648 129.812 6.76004C129.663 6.85527 129.551 6.99051 129.476 7.16575C129.353 6.80004 129.085 6.61718 128.671 6.61718C128.298 6.61718 128.031 6.78099 127.871 7.10861ZM135.285 8.10861C135.292 8.38289 135.372 8.60385 135.525 8.77147C135.682 8.93908 135.892 9.02289 136.157 9.02289C136.388 9.02289 136.602 8.95813 136.8 8.82861V9.42289C136.602 9.54099 136.356 9.60004 136.062 9.60004C135.626 9.60004 135.271 9.45908 134.999 9.17718C134.731 8.89528 134.597 8.53908 134.597 8.10861C134.6 7.68575 134.735 7.32956 134.999 7.04004C135.268 6.75051 135.633 6.60575 136.095 6.60575C136.371 6.60575 136.606 6.65908 136.8 6.76575V7.37147C136.614 7.24956 136.401 7.18861 136.163 7.18861C135.902 7.18861 135.691 7.27242 135.531 7.44004C135.37 7.60766 135.288 7.83051 135.285 8.10861ZM127.902 12.2213C127.434 12.7688 127.2 13.4951 127.2 14.4C127.2 15.2991 127.437 16.0224 127.91 16.57C128.383 17.1175 129.014 17.3913 129.803 17.3913C130.591 17.3913 131.22 17.1175 131.687 16.57C132.161 16.0224 132.397 15.2991 132.397 14.4C132.397 13.4893 132.163 12.7631 131.696 12.2213C131.228 11.6737 130.594 11.4 129.795 11.4C129.006 11.4 128.375 11.6737 127.902 12.2213ZM128.709 15.8524C128.437 15.4951 128.301 15.0109 128.301 14.4C128.301 13.7832 128.435 13.2962 128.701 12.9389C128.968 12.5815 129.332 12.4028 129.795 12.4028C130.262 12.4028 130.629 12.5815 130.896 12.9389C131.162 13.2962 131.296 13.7832 131.296 14.4C131.296 15.0167 131.162 15.5037 130.896 15.8611C130.629 16.2126 130.265 16.3884 129.803 16.3884C129.346 16.3884 128.981 16.2098 128.709 15.8524ZM136.539 12.8005V11.7458C136.164 11.5556 135.718 11.4605 135.201 11.4605C134.63 11.4605 134.17 11.6103 133.822 11.9101C133.479 12.2098 133.308 12.6075 133.308 13.1031C133.308 13.3394 133.343 13.5498 133.414 13.7343C133.49 13.9187 133.602 14.0772 133.749 14.2098C133.896 14.3423 134.032 14.449 134.157 14.5296C134.282 14.6046 134.445 14.691 134.646 14.789C134.673 14.8005 134.714 14.8207 134.769 14.8495C134.964 14.9417 135.092 15.0052 135.152 15.0397C135.217 15.0743 135.307 15.132 135.421 15.2126C135.541 15.2933 135.62 15.374 135.658 15.4547C135.696 15.5354 135.715 15.6276 135.715 15.7314C135.715 15.9504 135.639 16.1262 135.487 16.2588C135.334 16.3856 135.133 16.449 134.883 16.449C134.328 16.449 133.817 16.2703 133.349 15.9129V17.0282C133.757 17.276 134.271 17.4 134.891 17.4C135.462 17.4 135.922 17.2472 136.27 16.9417C136.623 16.6305 136.8 16.2155 136.8 15.6968C136.8 15.449 136.759 15.2299 136.678 15.0397C136.602 14.8438 136.482 14.6766 136.319 14.5383C136.161 14.4 136.014 14.2933 135.878 14.2184C135.742 14.1377 135.565 14.0455 135.348 13.9417C135.038 13.7919 134.804 13.6564 134.646 13.5354C134.494 13.4086 134.418 13.2501 134.418 13.0599C134.418 12.8697 134.488 12.7141 134.63 12.593C134.777 12.472 134.978 12.4115 135.234 12.4115C135.696 12.4115 136.131 12.5412 136.539 12.8005Z" fill="#080806"/>
<defs>
<clipPath id="clip0">
<rect width="24" height="24" fill="white" transform="translate(280)"/>
</clipPath>
<clipPath id="clip1">
<rect width="24" height="24" fill="white"/>
</clipPath>
<clipPath id="clip2">
<rect width="24" height="24" fill="white" transform="translate(40)"/>
</clipPath>
</defs>
</svg>
