<svg width="32" height="32" viewBox="0 0 32 32" fill="none" xmlns="http://www.w3.org/2000/svg">
<path d="M20.3609 11.0168H6.82568V18.362H20.3609V11.0168Z" fill="black"/>
<path d="M15.8697 21.2648H11.3181V22.0892H15.8697V21.2648Z" fill="black"/>
<path d="M27.4892 14.4735H23.2244V15.3043H27.4892V14.4735Z" fill="black"/>
<path d="M27.4892 16.1049H23.2244V20.9433H27.4892V16.1049Z" fill="black"/>
<path d="M16 32C24.8368 32 32 24.8368 32 16C32 7.1636 24.8368 0 16 0C7.1636 0 0 7.1636 0 16C0 24.8368 7.1636 32 16 32ZM17.8936 24.4264H9.2928C9.0716 24.4264 8.8928 24.2472 8.8928 24.0264C8.8928 23.8052 9.0716 23.6264 9.2928 23.6264H17.8936C18.1148 23.6264 18.2936 23.8052 18.2936 24.0264C18.2936 24.2472 18.1148 24.4264 17.8936 24.4264ZM22.4244 21.342V15.7044V14.0736C22.4244 13.8528 22.6032 13.6736 22.8244 13.6736H27.8892C28.1104 13.6736 28.2892 13.8528 28.2892 14.0736V15.7044V21.3428V23.9388C28.2892 24.16 28.1104 24.3388 27.8892 24.3388H22.8244C22.6032 24.3388 22.4244 24.16 22.4244 23.9388V21.342ZM6.0256 10.6168C6.0256 10.396 6.2044 10.2168 6.4256 10.2168H20.7608C20.982 10.2168 21.1608 10.396 21.1608 10.6168V20.8648C21.1608 21.086 20.982 21.2648 20.7608 21.2648H16.6696V22.4892C16.6696 22.7104 16.4908 22.8892 16.2696 22.8892H10.918C10.6968 22.8892 10.518 22.7104 10.518 22.4892V21.2648H6.426C6.2048 21.2648 6.026 21.086 6.026 20.8648L6.0256 10.6168Z" fill="black"/>
<path d="M27.4892 21.7421H23.2244V23.5389H27.4892V21.7421ZM25.6672 23.1285H25.046C24.8248 23.1285 24.646 22.9493 24.646 22.7285C24.646 22.5077 24.8248 22.3285 25.046 22.3285H25.6672C25.8884 22.3285 26.0672 22.5077 26.0672 22.7285C26.0672 22.9493 25.8884 23.1285 25.6672 23.1285Z" fill="black"/>
</svg>
