<svg width="32" height="32" viewBox="0 0 32 32" fill="none" xmlns="http://www.w3.org/2000/svg">
<path d="M31.9998 16C31.9998 13.2485 31.2885 10.5336 29.9429 8.14861C28.449 5.50109 26.2452 3.34093 23.5699 1.9015C21.2577 0.657509 18.64 0 16 0C13.2616 0 10.5579 0.70512 8.18092 2.03887C5.50343 3.54137 3.32407 5.76663 1.8784 8.47362C0.649547 10.7749 0 13.3775 0 16C0 18.8464 0.758196 21.6427 2.19248 24.0868C2.19263 24.0871 2.19279 24.0876 2.1931 24.0879C3.74774 26.7363 6.01358 28.872 8.74571 30.264C8.74602 30.2641 8.74633 30.2643 8.74649 30.2644C11.0069 31.416 13.4472 32 15.9998 32C18.8595 32 21.6673 31.2351 24.1196 29.7882C26.7385 28.2427 28.8556 25.9983 30.242 23.2977C30.2423 23.2971 30.2426 23.2963 30.2429 23.2957C31.3924 21.056 31.9998 18.5334 31.9998 16ZM3.58726 21.7037C2.76943 19.9237 2.34155 17.9761 2.34155 16C2.34155 14.215 2.69372 12.4413 3.36762 10.8008L7.36591 13.6945C7.16531 14.4444 7.064 15.2165 7.064 16C7.064 16.9095 7.19872 17.7988 7.4655 18.6547L4.73525 20.8013L3.58726 21.7037ZM13.8957 22.2493C13.8954 22.2491 13.8951 22.249 13.8949 22.249C12.1158 21.6499 10.6722 20.316 9.93397 18.5894C9.58352 17.7696 9.40571 16.8984 9.40571 16C9.40571 15.1962 9.54995 14.4088 9.83469 13.6595V13.6592C10.5016 11.904 11.8898 10.5123 13.6439 9.84077C14.3979 9.55198 15.1906 9.40571 15.9998 9.40571C16.8166 9.40571 17.6165 9.55495 18.3771 9.8492C20.1037 10.5172 21.478 11.8901 22.148 13.616C22.444 14.3787 22.5941 15.1808 22.5941 15.9998C22.5941 16.7304 22.4736 17.4516 22.236 18.1431C21.6347 19.8928 20.3155 21.318 18.6163 22.0535C18.6161 22.0535 18.6161 22.0537 18.616 22.0537C17.7877 22.4123 16.9074 22.594 16 22.594C15.2835 22.5941 14.5756 22.4781 13.8957 22.2493ZM28.5181 10.5315C29.2669 12.2473 29.6583 14.1132 29.6583 15.9998C29.6583 17.729 29.3451 19.3967 28.7257 20.9739L24.6956 18.0571C24.8551 17.384 24.9357 16.6951 24.9357 15.9997C24.9357 15.185 24.8261 14.3826 24.6091 13.6046L28.1441 10.8255L28.5181 10.5315ZM16 2.34155C17.8014 2.34155 19.5901 2.69981 21.2424 3.38526L18.3522 7.37886C16.8205 6.96019 15.1716 6.96082 13.6403 7.38089L10.564 3.46784C12.2707 2.72822 14.1255 2.34155 16 2.34155ZM16 29.6584C14.2875 29.6584 12.6346 29.3509 11.0698 28.7427L13.9906 24.7068C14.6488 24.859 15.3216 24.9357 16.0002 24.9357C16.9215 24.9357 17.8224 24.7972 18.6892 24.5229L20.2317 26.4849L21.7357 28.3979C19.9468 29.2256 17.9884 29.6584 16 29.6584Z" fill="#FF6300"/>
</svg>
