<svg width="16" height="16" viewBox="0 0 16 16" fill="none" xmlns="http://www.w3.org/2000/svg">
<path fill-rule="evenodd" clip-rule="evenodd" d="M8 16C12.4183 16 16 12.4183 16 8C16 3.58172 12.4183 0 8 0C3.58172 0 0 3.58172 0 8C0 12.4183 3.58172 16 8 16ZM12.7433 6.66896C13.1128 6.25845 13.0795 5.62616 12.669 5.25671C12.2585 4.88725 11.6262 4.92053 11.2567 5.33104L7.46181 9.54759L5.70711 7.79289C5.31658 7.40237 4.68342 7.40237 4.29289 7.79289C3.90237 8.18342 3.90237 8.81658 4.29289 9.20711L6.79289 11.7071C6.98688 11.9011 7.25204 12.0069 7.52629 11.9997C7.80053 11.9924 8.05977 11.8729 8.24329 11.669L12.7433 6.66896Z" fill="white"/>
</svg>
