<svg width="32" height="32" viewBox="0 0 32 32" fill="none" xmlns="http://www.w3.org/2000/svg">
<path fill-rule="evenodd" clip-rule="evenodd" d="M32 16C32 24.8366 24.8366 32 16 32C7.16344 32 0 24.8366 0 16C0 7.16344 7.16344 0 16 0C24.8366 0 32 7.16344 32 16ZM24.4 16C23.1861 12.407 19.9244 9.82857 16.08 9.82857C14.7038 9.82857 13.4059 10.1645 12.2473 10.755L10.2706 8.8L8.8 10.2545L21.8893 23.2L23.3599 21.7455L21.6654 20.0696C22.8993 19.0095 23.8564 17.6087 24.3999 16L24.4 16ZM16.08 11.8857C18.3775 11.8857 20.24 13.7277 20.24 16C20.24 16.7629 20.0212 17.4697 19.6524 18.0787L18.0888 16.5323C18.1352 16.3628 18.16 16.1844 18.16 16C18.16 14.8638 17.2287 13.9429 16.08 13.9429C15.8942 13.9429 15.7158 13.9706 15.5448 14.0162L13.991 12.4795C14.6059 12.1155 15.3098 11.8857 16.08 11.8857ZM11.7858 16.038C11.7858 18.2331 13.6598 20.0127 15.9716 20.0127C16.344 20.0127 16.6986 19.9517 17.0424 19.865L18.8 21.534C17.9117 21.8348 16.9613 22 15.9716 22C12.1033 22 8.82139 19.5091 7.6 16.038C8.03099 14.8132 8.72272 13.7144 9.60207 12.8L11.9413 15.0213C11.85 15.3476 11.7858 15.6843 11.7858 16.038Z" fill="black"/>
</svg>
