<svg width="32" height="32" viewBox="0 0 32 32" fill="none" xmlns="http://www.w3.org/2000/svg">
<path d="M16 0C7.16343 0 0 7.16343 0 16C0 24.8365 7.16343 31.9999 16 31.9999C24.8365 31.9999 31.9999 24.8365 31.9999 16C31.9906 7.16738 24.8326 0.00944196 16 0ZM22.7382 16.5098C22.6274 16.732 22.4473 16.9121 22.2251 17.0228V17.0285L13.0823 21.6C12.5176 21.8821 11.8312 21.6532 11.5491 21.0885C11.4688 20.928 11.4275 20.7508 11.4285 20.5714V11.4286C11.4283 10.7974 11.9397 10.2855 12.5709 10.2852C12.7484 10.2851 12.9235 10.3264 13.0823 10.4057L22.2251 14.9772C22.79 15.2587 23.0198 15.9449 22.7382 16.5098Z" fill="black"/>
</svg>
