<svg width="32" height="32" viewBox="0 0 32 32" fill="none" xmlns="http://www.w3.org/2000/svg">
<path fill-rule="evenodd" clip-rule="evenodd" d="M32 16C32 24.8366 24.8366 32 16 32C7.16344 32 0 24.8366 0 16C0 7.16344 7.16344 0 16 0C24.8366 0 32 7.16344 32 16ZM16 19.6332C15.1414 19.6332 14.4429 20.3317 14.4429 21.1903C14.4429 22.0489 15.1414 22.7474 16 22.7474C16.8586 22.7474 17.5571 22.0489 17.5571 21.1903C17.5571 20.3317 16.8586 19.6332 16 19.6332ZM12.1059 18.0303C13.0266 16.8978 14.4301 16.173 15.9999 16.173C17.5698 16.173 18.9732 16.8978 19.894 18.0303L18.202 19.7222C18.202 19.7222 17.3841 18.5964 16 18.5964C14.5871 18.5964 13.7979 19.7222 13.7979 19.7222L12.1059 18.0303ZM16 9.2527C10.5975 9.2527 7.50265 12.7797 7.21813 13.1039L7.2 13.1244L8.91796 14.8424C10.6614 12.8994 13.1902 11.6749 16 11.6749C18.8098 11.6749 21.3387 12.8994 23.082 14.8424L24.8 13.1244L24.7822 13.1042C24.4992 12.7822 21.3975 9.2527 16 9.2527ZM9.65294 15.5773C11.2073 13.8217 13.4764 12.7129 16 12.7129C18.5236 12.7129 20.7928 13.8217 22.3471 15.5773L20.6309 17.2935C19.5192 15.9745 17.8559 15.135 16 15.135C14.1441 15.135 12.4808 15.9745 11.3692 17.2935L9.65294 15.5773Z" fill="#080806"/>
</svg>
